<?xml version="1.0" standalone="no"?><!-- Generator: Gravit.io --><svg xmlns="http://www.w3.org/2000/svg" xmlns:xlink="http://www.w3.org/1999/xlink" style="isolation:isolate" viewBox="0 0 4306.847 738.879" width="4306.847" height="738.879"><defs><clipPath id="_clipPath_436wC9ylNGcUsob9IZy5If7D32GFvLhv"><rect width="4306.847" height="738.879"/></clipPath></defs><g clip-path="url(#_clipPath_436wC9ylNGcUsob9IZy5If7D32GFvLhv)"><g><g><path d=" M 0.003 7.425 L 192.577 7.425 L 313.208 328.384 L 371.852 489.945 L 376.284 489.945 C 367.428 412.502 349.724 304.028 349.724 215.486 L 349.724 7.425 L 531.205 7.425 L 531.205 726.785 L 338.649 726.785 L 218.017 404.749 L 159.383 244.265 L 154.941 244.265 C 163.798 326.159 181.512 430.197 181.512 518.723 L 181.512 726.785 L 0.003 726.785 L 0.003 7.425 Z " fill="rgb(37,36,34)"/><path d=" M 606.196 7.425 L 878.797 7.425 L 878.797 96.642 L 712.759 96.642 L 712.759 159.839 L 854.013 159.839 L 854.013 249.039 L 712.759 249.039 L 712.759 320.911 L 884.989 320.911 L 884.989 410.136 L 606.196 410.136 L 606.196 7.425" fill="rgb(37,36,34)"/><path d=" M 1051.659 190.817 L 1087.594 190.817 C 1129.723 190.817 1152.02 172.236 1152.02 137.526 C 1152.02 102.852 1129.723 91.692 1087.594 91.692 L 1051.659 91.692 L 1051.659 190.817 L 1051.659 190.817 Z  M 1159.456 410.136 L 1090.074 275.066 L 1051.659 275.066 L 1051.659 410.136 L 945.095 410.136 L 945.095 7.425 L 1095.033 7.425 C 1181.762 7.425 1256.112 37.166 1256.112 137.526 C 1256.112 195.154 1230.083 232.946 1191.065 254.016 L 1278.415 410.136 L 1159.456 410.136" fill="rgb(37,36,34)"/><path d=" M 1409.149 324.634 C 1460.582 324.634 1502.09 301.103 1502.09 206.928 C 1502.09 112.751 1460.582 92.928 1409.149 92.928 L 1407.913 92.928 L 1407.913 324.634 L 1409.149 324.634 L 1409.149 324.634 Z  M 1301.36 7.425 L 1414.737 7.425 C 1529.956 7.425 1611.114 64.437 1611.114 206.928 C 1611.114 349.418 1529.956 410.136 1420.923 410.136 L 1301.36 410.136 L 1301.36 7.425 Z " fill="rgb(37,36,34)"/><path d=" M 1786.822 328.348 C 1828.962 328.348 1846.307 312.238 1846.307 282.505 C 1846.307 252.762 1828.962 240.385 1786.822 240.385 L 1755.855 240.385 L 1755.855 328.348 L 1786.822 328.348 Z  M 1779.394 166.024 C 1814.069 166.024 1828.962 148.688 1828.962 123.904 C 1828.962 99.129 1814.069 89.203 1779.394 89.203 L 1755.855 89.203 L 1755.855 166.024 L 1779.394 166.024 L 1779.394 166.024 Z  M 1649.291 7.425 L 1781.866 7.425 C 1866.124 7.425 1933.037 28.493 1933.037 107.801 C 1933.037 142.494 1911.958 182.144 1864.87 194.54 L 1864.87 197.002 C 1921.884 208.162 1950.373 237.904 1950.373 291.177 C 1950.373 374.202 1880.999 410.136 1794.27 410.136 L 1649.291 410.136 L 1649.291 7.425 Z " fill="rgb(37,36,34)"/><path d=" M 2100.949 190.817 L 2136.868 190.817 C 2179.022 190.817 2201.327 172.236 2201.327 137.526 C 2201.327 102.852 2179.022 91.692 2136.868 91.692 L 2100.949 91.692 L 2100.949 190.817 Z  M 2208.746 410.136 L 2139.364 275.066 L 2100.949 275.066 L 2100.949 410.136 L 1994.394 410.136 L 1994.394 7.425 L 2144.287 7.425 C 2231.043 7.425 2305.4 37.166 2305.4 137.526 C 2305.4 195.154 2279.362 232.946 2240.346 254.016 L 2327.714 410.136 L 2208.746 410.136 Z " fill="rgb(37,36,34)"/><path d=" M 2349.065 7.425 L 2621.641 7.425 L 2621.641 96.642 L 2455.615 96.642 L 2455.615 159.839 L 2596.86 159.839 L 2596.86 249.039 L 2455.615 249.039 L 2455.615 320.911 L 2627.854 320.911 L 2627.854 410.136 L 2349.065 410.136 L 2349.065 7.425 Z " fill="rgb(37,36,34)"/><path d=" M 2653.286 7.425 L 2762.325 7.425 L 2767.282 206.928 C 2767.282 241.603 2767.282 276.311 2767.282 311.003 L 2769.749 311.003 C 2774.705 276.311 2783.384 240.988 2789.574 206.928 L 2811.866 109.037 L 2873.832 109.037 L 2894.285 206.928 C 2899.847 239.752 2908.504 275.066 2914.111 311.003 L 2916.578 311.003 C 2916.578 275.066 2916.578 240.385 2916.578 206.928 L 2921.534 7.425 L 3023.128 7.425 L 2976.682 410.136 L 2866.409 410.136 L 2848.422 299.85 C 2844.071 273.832 2839.743 245.334 2839.16 221.172 L 2837.276 221.172 C 2835.415 245.334 2832.32 273.832 2827.991 299.85 L 2811.283 410.136 L 2703.455 410.136 L 2653.286 7.425" fill="rgb(37,36,34)"/><path d=" M 3049.166 320.911 L 3140.869 320.911 L 3140.869 96.642 L 3049.166 96.642 L 3049.166 7.425 L 3339.123 7.425 L 3339.123 96.642 L 3247.419 96.642 L 3247.419 320.911 L 3339.123 320.911 L 3339.123 410.136 L 3049.166 410.136 L 3049.166 320.911" fill="rgb(37,36,34)"/><path d=" M 3401.717 7.425 L 3509.478 7.425 L 3577.005 187.103 L 3609.861 277.555 L 3612.328 277.555 C 3607.394 234.182 3597.459 173.463 3597.459 123.904 L 3597.459 7.425 L 3699.053 7.425 L 3699.053 410.136 L 3591.291 410.136 L 3523.741 229.844 L 3490.908 140.015 L 3488.441 140.015 C 3493.398 185.858 3503.288 244.09 3503.288 293.664 L 3503.288 410.136 L 3401.717 410.136 L 3401.717 7.425" fill="rgb(37,36,34)"/><path d=" M 4081.028 0.004 C 4177.486 0.004 4246.561 43.851 4293.68 92.087 L 4190.65 208.267 C 4161.047 179.778 4132.542 162.249 4081.028 162.249 C 4003.184 162.249 3939.581 238.99 3939.581 368.339 C 3939.581 502.078 3988.92 576.63 4090.873 576.63 C 4108.388 576.63 4128.147 572.249 4139.136 563.463 L 4139.136 464.802 L 4050.325 464.802 L 4050.325 311.335 L 4306.844 311.335 L 4306.844 651.182 C 4257.527 695.028 4170.915 738.874 4079.929 738.874 C 3896.858 738.874 3745.566 618.286 3745.566 374.91 C 3745.566 133.743 3895.737 0.004 4081.028 0.004 Z " fill="rgb(37,36,34)"/><path d=" M 736.797 610.27 C 736.797 557.488 716.027 525.118 685.031 525.118 C 654.019 525.118 633.247 557.488 633.247 610.27 C 633.247 663.096 654.019 697.131 685.031 697.131 C 716.027 697.131 736.797 663.096 736.797 610.27 Z  M 598.162 610.27 C 598.162 538.408 633.922 495.507 685.031 495.507 C 736.106 495.507 771.892 538.758 771.892 610.27 C 771.892 682.15 736.106 726.785 685.031 726.785 C 633.922 726.785 598.162 682.15 598.162 610.27 Z " fill="rgb(37,36,34)"/><path d=" M 879.156 609.92 C 915.256 609.92 932.637 596.297 932.637 566.687 C 932.637 537.032 914.584 526.826 879.156 526.826 L 844.744 526.826 L 844.744 609.92 L 879.156 609.92 Z  M 810.691 499.582 L 882.553 499.582 C 931.597 499.582 966.358 516.62 966.358 566.687 C 966.358 615.071 930.94 637.533 882.553 637.533 L 844.744 637.533 L 844.744 722.685 L 810.691 722.685 L 810.691 499.582 Z " fill="rgb(37,36,34)"/><path d=" M 1011.966 499.582 L 1151.966 499.582 L 1151.966 528.184 L 1046.034 528.184 L 1046.034 591.899 L 1135.628 591.899 L 1135.628 620.502 L 1046.034 620.502 L 1046.034 694.064 L 1155.384 694.064 L 1155.384 722.685 L 1011.966 722.685 L 1011.966 499.582" fill="rgb(37,36,34)"/><path d=" M 1197.241 499.582 L 1231.644 499.582 L 1297.732 632.767 L 1319.187 679.084 L 1320.221 679.084 C 1318.853 656.613 1315.447 629.675 1315.447 605.846 L 1315.447 499.582 L 1347.8 499.582 L 1347.8 722.685 L 1313.406 722.685 L 1247.316 589.508 L 1225.862 543.165 L 1224.844 543.165 C 1226.203 566.336 1229.603 591.549 1229.603 615.746 L 1229.603 722.685 L 1197.241 722.685 L 1197.241 499.582" fill="rgb(37,36,34)"/><path d=" M 1603.22 670.586 C 1620.26 686.574 1642.738 697.131 1665.903 697.131 C 1695.179 697.131 1711.544 684.209 1711.544 664.454 C 1711.544 643.998 1695.179 637.533 1672.701 628.667 L 1641.372 614.72 C 1618.551 605.846 1593.688 589.157 1593.688 556.454 C 1593.688 521.728 1624.685 495.507 1668.96 495.507 C 1696.563 495.507 1721.41 506.397 1738.79 523.436 L 1721.066 545.223 C 1706.428 532.626 1690.09 525.118 1668.96 525.118 C 1643.747 525.118 1628.073 536.375 1628.073 554.422 C 1628.073 574.177 1647.163 580.993 1666.928 588.833 L 1697.229 602.123 C 1725.166 612.986 1746.288 629.018 1746.288 661.738 C 1746.288 697.481 1715.969 726.785 1665.201 726.785 C 1633.198 726.785 1604.588 714.52 1583.466 693.732 L 1603.22 670.586" fill="rgb(37,36,34)"/><path d=" M 1911.783 610.27 C 1911.783 557.488 1891.02 525.118 1860.008 525.118 C 1829.05 525.118 1808.233 557.488 1808.233 610.27 C 1808.233 663.096 1829.05 697.131 1860.008 697.131 C 1891.02 697.131 1911.783 663.096 1911.783 610.27 Z  M 1773.175 610.27 C 1773.175 538.408 1808.944 495.507 1860.008 495.507 C 1911.092 495.507 1946.879 538.758 1946.879 610.27 C 1946.879 682.15 1911.092 726.785 1860.008 726.785 C 1808.944 726.785 1773.175 682.15 1773.175 610.27 Z " fill="rgb(37,36,34)"/><path d=" M 1979.205 499.582 L 2013.623 499.582 L 2013.623 639.924 C 2013.623 680.792 2030.979 697.131 2056.21 697.131 C 2081.736 697.131 2099.433 680.792 2099.433 639.924 L 2099.433 499.582 L 2132.504 499.582 L 2132.504 637.866 C 2132.504 700.547 2102.499 726.785 2056.21 726.785 C 2009.9 726.785 1979.205 700.547 1979.205 637.866 L 1979.205 499.582 Z " fill="rgb(37,36,34)"/><path d=" M 2214.896 604.488 L 2248.637 604.488 C 2281.335 604.488 2299.053 591.216 2299.053 563.971 C 2299.053 536.726 2281.335 526.826 2248.637 526.826 L 2214.896 526.826 L 2214.896 604.488 L 2214.896 604.488 Z  M 2302.103 722.685 L 2251.351 632.084 L 2214.896 632.084 L 2214.896 722.685 L 2180.872 722.685 L 2180.872 499.582 L 2252.719 499.582 C 2298.694 499.582 2332.783 515.919 2332.783 563.971 C 2332.783 598.356 2314.034 619.136 2285.754 627.66 L 2340.587 722.685 L 2302.103 722.685 Z " fill="rgb(37,36,34)"/><path d=" M 2468.286 495.507 C 2495.512 495.507 2516.997 508.779 2530.274 523.077 L 2511.234 544.549 C 2499.975 532.626 2486.34 525.118 2468.286 525.118 C 2428.434 525.118 2401.88 557.838 2401.88 610.621 C 2401.88 664.104 2428.434 697.131 2468.959 697.131 C 2488.044 697.131 2502.712 688.633 2516.302 673.653 L 2535.41 694.415 C 2517.334 715.195 2495.199 726.785 2466.941 726.785 C 2410.402 726.785 2366.782 684.91 2366.782 611.646 C 2366.782 539.091 2409.707 495.507 2468.286 495.507" fill="rgb(37,36,34)"/><path d=" M 2578.649 499.582 L 2718.66 499.582 L 2718.66 528.184 L 2612.693 528.184 L 2612.693 591.899 L 2702.289 591.899 L 2702.289 620.502 L 2612.693 620.502 L 2612.693 694.064 L 2722.047 694.064 L 2722.047 722.685 L 2578.649 722.685 L 2578.649 499.582 Z " fill="rgb(37,36,34)"/><path d=" M 3030.955 695.773 C 3066.389 695.773 3086.103 682.833 3086.103 655.255 C 3086.103 629.675 3067.062 618.111 3030.955 618.111 L 3000.275 618.111 L 3000.275 695.773 L 3030.955 695.773 Z  M 3025.483 593.248 C 3059.886 593.248 3074.194 580.66 3074.194 557.838 C 3074.194 535.674 3058.204 526.169 3026.514 526.169 L 3000.275 526.169 L 3000.275 593.248 L 3025.483 593.248 Z  M 2966.231 499.582 L 3029.587 499.582 C 3075.226 499.582 3107.565 514.211 3107.565 554.422 C 3107.565 575.885 3094.984 595.991 3068.744 602.78 L 3068.744 604.164 C 3101.106 609.613 3119.519 626.959 3119.519 657.288 C 3119.519 701.572 3084.443 722.685 3035.014 722.685 L 2966.231 722.685 L 2966.231 499.582 Z " fill="rgb(37,36,34)"/><path d=" M 3166.167 499.582 L 3306.133 499.582 L 3306.133 528.184 L 3200.166 528.184 L 3200.166 591.899 L 3289.806 591.899 L 3289.806 620.502 L 3200.166 620.502 L 3200.166 694.064 L 3309.542 694.064 L 3309.542 722.685 L 3166.167 722.685 L 3166.167 499.582 Z " fill="rgb(37,36,34)"/><path d=" M 3361.976 499.582 L 3501.965 499.582 L 3501.965 528.184 L 3396.043 528.184 L 3396.043 591.899 L 3485.616 591.899 L 3485.616 620.502 L 3396.043 620.502 L 3396.043 694.064 L 3505.374 694.064 L 3505.374 722.685 L 3361.976 722.685 L 3361.976 499.582 Z " fill="rgb(37,36,34)"/><path d=" M 3585.752 604.488 L 3619.459 604.488 C 3652.158 604.488 3669.853 591.216 3669.853 563.971 C 3669.853 536.726 3652.158 526.826 3619.459 526.826 L 3585.752 526.826 L 3585.752 604.488 Z  M 3672.925 722.685 L 3622.196 632.084 L 3585.752 632.084 L 3585.752 722.685 L 3551.663 722.685 L 3551.663 499.582 L 3623.541 499.582 C 3669.516 499.582 3703.605 515.919 3703.605 563.971 C 3703.605 598.356 3684.879 619.136 3656.576 627.66 L 3711.432 722.685 L 3672.925 722.685 Z " fill="rgb(37,36,34)"/></g></g></g></svg>