<?xml version="1.0" standalone="no"?><!-- Generator: Gravit.io --><svg xmlns="http://www.w3.org/2000/svg" xmlns:xlink="http://www.w3.org/1999/xlink" style="isolation:isolate" viewBox="391.222 130.109 234.778 12.891" width="234.778" height="12.891"><defs><clipPath id="_clipPath_S0LhwkMZg3g9T5hS4atxGhTAr0sNrz82"><rect x="391.222" y="130.109" width="234.778" height="12.891"/></clipPath></defs><g clip-path="url(#_clipPath_S0LhwkMZg3g9T5hS4atxGhTAr0sNrz82)"><clipPath id="_clipPath_1WdMPwscb8TuqjW5JunWqFT3mKHQXpn9"><rect x="391.222" y="130.109" width="234.778" height="12.891" transform="matrix(1,0,0,1,0,0)" fill="rgb(255,255,255)"/></clipPath><g clip-path="url(#_clipPath_1WdMPwscb8TuqjW5JunWqFT3mKHQXpn9)"><g><path d=" M 493.622 130.126 L 529.644 130.126 L 529.644 142.984 L 493.622 142.984 L 493.622 130.126 Z " fill="rgb(37,36,34)"/><path d=" M 534.287 142.988 L 518.605 142.984 L 510.633 136.551 L 518.343 130.122 L 534.026 130.126 L 541.998 136.559 L 534.287 142.988 Z " fill="rgb(37,36,34)"/><path d=" M 499.853 143 L 484.17 142.996 L 476.198 136.55 L 483.909 130.109 L 499.591 130.114 L 507.563 136.56 L 499.853 143 Z " fill="rgb(37,36,34)"/><rect x="391.222" y="135.354" width="234.778" height="2.33" transform="matrix(1,0,0,1,0,0)" fill="rgb(37,36,34)"/><path d=" M 504.439 139.002 L 504.439 139.654 L 500.4 139.654 L 500.4 139.049 L 502.018 137.411 L 502.018 137.411 Q 502.758 136.659 502.994 136.337 L 502.994 136.337 L 502.994 136.337 Q 503.229 136.016 503.346 135.711 L 503.346 135.711 L 503.346 135.711 Q 503.465 135.406 503.465 135.055 L 503.465 135.055 L 503.465 135.055 Q 503.465 134.56 503.166 134.27 L 503.166 134.27 L 503.166 134.27 Q 502.867 133.98 502.338 133.98 L 502.338 133.98 L 502.338 133.98 Q 501.955 133.98 501.613 134.107 L 501.613 134.107 L 501.613 134.107 Q 501.27 134.234 500.85 134.568 L 500.85 134.568 L 500.48 134.09 L 500.48 134.09 Q 501.329 133.38 502.329 133.38 L 502.329 133.38 L 502.329 133.38 Q 503.195 133.38 503.687 133.826 L 503.687 133.826 L 503.687 133.826 Q 504.179 134.272 504.179 135.025 L 504.179 135.025 L 504.179 135.025 Q 504.179 135.613 503.851 136.188 L 503.851 136.188 L 503.851 136.188 Q 503.523 136.764 502.624 137.644 L 502.624 137.644 L 501.279 138.968 L 501.279 139.002 L 504.439 139.002 Z  M 509.394 136.553 L 509.394 136.553 L 509.394 136.553 Q 509.394 138.156 508.893 138.947 L 508.893 138.947 L 508.893 138.947 Q 508.39 139.738 507.357 139.738 L 507.357 139.738 L 507.357 139.738 Q 506.365 139.738 505.847 138.928 L 505.847 138.928 L 505.847 138.928 Q 505.33 138.118 505.33 136.553 L 505.33 136.553 L 505.33 136.553 Q 505.33 134.937 505.831 134.154 L 505.831 134.154 L 505.831 134.154 Q 506.331 133.371 507.357 133.371 L 507.357 133.371 L 507.357 133.371 Q 508.357 133.371 508.876 134.188 L 508.876 134.188 L 508.876 134.188 Q 509.394 135.004 509.394 136.553 Z  M 506.036 136.553 L 506.036 136.553 L 506.036 136.553 Q 506.036 137.902 506.352 138.518 L 506.352 138.518 L 506.352 138.518 Q 506.667 139.133 507.357 139.133 L 507.357 139.133 L 507.357 139.133 Q 508.054 139.133 508.367 138.509 L 508.367 138.509 L 508.367 138.509 Q 508.68 137.886 508.68 136.553 L 508.68 136.553 L 508.68 136.553 Q 508.68 135.22 508.367 134.6 L 508.367 134.6 L 508.367 134.6 Q 508.054 133.98 507.357 133.98 L 507.357 133.98 L 507.357 133.98 Q 506.667 133.98 506.352 134.592 L 506.352 134.592 L 506.352 134.592 Q 506.036 135.203 506.036 136.553 Z  M 512.829 133.468 L 512.829 139.654 L 512.148 139.654 L 512.148 135.246 L 512.148 135.246 Q 512.148 134.695 512.182 134.204 L 512.182 134.204 L 512.182 134.204 Q 512.093 134.294 511.984 134.39 L 511.984 134.39 L 511.984 134.39 Q 511.875 134.488 510.984 135.216 L 510.984 135.216 L 510.614 134.733 L 512.241 133.468 L 512.829 133.468 Z  M 517.2 133.38 L 517.2 133.38 L 517.2 133.38 Q 518.041 133.38 518.532 133.773 L 518.532 133.773 L 518.532 133.773 Q 519.024 134.166 519.024 134.86 L 519.024 134.86 L 519.024 134.86 Q 519.024 135.317 518.742 135.693 L 518.742 135.693 L 518.742 135.693 Q 518.461 136.07 517.843 136.379 L 517.843 136.379 L 517.843 136.379 Q 518.592 136.739 518.907 137.134 L 518.907 137.134 L 518.907 137.134 Q 519.222 137.53 519.222 138.05 L 519.222 138.05 L 519.222 138.05 Q 519.222 138.82 518.688 139.279 L 518.688 139.279 L 518.688 139.279 Q 518.154 139.738 517.226 139.738 L 517.226 139.738 L 517.226 139.738 Q 516.242 139.738 515.712 139.305 L 515.712 139.305 L 515.712 139.305 Q 515.183 138.871 515.183 138.076 L 515.183 138.076 L 515.183 138.076 Q 515.183 137.014 516.469 136.421 L 516.469 136.421 L 516.469 136.421 Q 515.889 136.092 515.636 135.709 L 515.636 135.709 L 515.636 135.709 Q 515.385 135.326 515.385 134.851 L 515.385 134.851 L 515.385 134.851 Q 515.385 134.179 515.878 133.779 L 515.878 133.779 L 515.878 133.779 Q 516.372 133.38 517.2 133.38 Z  M 515.872 138.093 L 515.872 138.093 L 515.872 138.093 Q 515.872 138.6 516.222 138.884 L 516.222 138.884 L 516.222 138.884 Q 516.574 139.167 517.208 139.167 L 517.208 139.167 L 517.208 139.167 Q 517.835 139.167 518.184 138.871 L 518.184 138.871 L 518.184 138.871 Q 518.532 138.575 518.532 138.059 L 518.532 138.059 L 518.532 138.059 Q 518.532 137.648 518.204 137.329 L 518.204 137.329 L 518.204 137.329 Q 517.877 137.01 517.061 136.709 L 517.061 136.709 L 517.061 136.709 Q 516.435 136.98 516.153 137.308 L 516.153 137.308 L 516.153 137.308 Q 515.872 137.636 515.872 138.093 Z  M 517.192 133.951 L 517.192 133.951 L 517.192 133.951 Q 516.666 133.951 516.368 134.204 L 516.368 134.204 L 516.368 134.204 Q 516.07 134.458 516.07 134.881 L 516.07 134.881 L 516.07 134.881 Q 516.07 135.27 516.317 135.55 L 516.317 135.55 L 516.317 135.55 Q 516.565 135.829 517.234 136.108 L 517.234 136.108 L 517.234 136.108 Q 517.835 135.855 518.085 135.563 L 518.085 135.563 L 518.085 135.563 Q 518.335 135.27 518.335 134.881 L 518.335 134.881 L 518.335 134.881 Q 518.335 134.454 518.03 134.202 L 518.03 134.202 L 518.03 134.202 Q 517.725 133.951 517.192 133.951 Z " fill-rule="evenodd" fill="rgb(241,239,232)"/></g></g></g></svg>