<?xml version="1.0" encoding="UTF-8" standalone="no"?>
<!-- Created with Inkscape (http://www.inkscape.org/) -->

<svg
   xmlns:dc="http://purl.org/dc/elements/1.1/"
   xmlns:cc="http://creativecommons.org/ns#"
   xmlns:rdf="http://www.w3.org/1999/02/22-rdf-syntax-ns#"
   xmlns:svg="http://www.w3.org/2000/svg"
   xmlns="http://www.w3.org/2000/svg"
   xmlns:xlink="http://www.w3.org/1999/xlink"
   xmlns:sodipodi="http://sodipodi.sourceforge.net/DTD/sodipodi-0.dtd"
   xmlns:inkscape="http://www.inkscape.org/namespaces/inkscape"
   id="svg3398"
   version="1.1"
   inkscape:version="0.91 r13725"
   xml:space="preserve"
   width="183cm"
   height="76cm"
   viewBox="0 0 6484.252 2692.9135"
   sodipodi:docname="Nerdbrewing_text_logo_WHITE_banderoll.svg"><metadata
     id="metadata3404"><rdf:RDF><cc:Work
         rdf:about=""><dc:format>image/svg+xml</dc:format><dc:type
           rdf:resource="http://purl.org/dc/dcmitype/StillImage" /><dc:title></dc:title></cc:Work></rdf:RDF></metadata><defs
     id="defs3402"><color-profile
       name="Agfa-:-Swop-Standard"
       xlink:href="C:\Windows\system32\spool\drivers\color\RSWOP.icm"
       id="color-profile3465" /></defs><sodipodi:namedview
     pagecolor="#ffffff"
     bordercolor="#666666"
     borderopacity="1"
     objecttolerance="10"
     gridtolerance="10"
     guidetolerance="10"
     inkscape:pageopacity="0"
     inkscape:pageshadow="2"
     inkscape:window-width="1920"
     inkscape:window-height="1137"
     id="namedview3400"
     showgrid="false"
     inkscape:zoom="0.16"
     inkscape:cx="3295.7877"
     inkscape:cy="541.47979"
     inkscape:window-x="-8"
     inkscape:window-y="-8"
     inkscape:window-maximized="1"
     inkscape:current-layer="g3406"
     units="cm"
     fit-margin-top="0"
     fit-margin-left="0"
     fit-margin-right="0"
     fit-margin-bottom="0" /><g
     inkscape:groupmode="layer"
     id="layer1"
     inkscape:label="bg"
     transform="translate(51.347595,2607.4386)" /><g
     id="g3406"
     inkscape:groupmode="layer"
     inkscape:label="ink_ext_XXXXXX"
     transform="matrix(1.25,0,0,-1.25,51.347595,2648.6261)"><g
       id="g3408"
       transform="matrix(2.242691,0,0,2.242691,399.20199,672.30027)"
       style="fill:#000000"><path
         d="m 0,326.148 85.8672,0 53.7888,-143.113 26.149,-72.039 1.976,0 c -3.949,34.531 -11.843,82.899 -11.843,122.379 l 0,92.773 80.921,0 0,-320.75737 -85.859,0 -53.7891,143.59337 -26.1445,71.559 -1.9805,0 C 73.0352,184.027 80.9336,137.637 80.9336,98.1641 l 0,-92.77347 L 0,5.39063 0,326.148"
         style="fill:#000000;fill-opacity:1;fill-rule:nonzero;stroke:none"
         id="path3410"
         inkscape:connector-curvature="0" /><path
         d="m 270.297,326.148 121.551,0 0,-39.781 -74.035,0 0,-28.179 62.984,0 0,-39.774 -62.984,0 0,-32.047 76.796,0 0,-39.785 -124.312,0 0,179.566"
         style="fill:#000000;fill-opacity:1;fill-rule:nonzero;stroke:none"
         id="path3412"
         inkscape:connector-curvature="0" /><path
         d="m 468.926,244.375 16.023,0 c 18.785,0 28.727,8.285 28.727,23.762 0,15.461 -9.942,20.437 -28.727,20.437 l -16.023,0 0,-44.199 z m 48.066,-97.793 -30.937,60.227 -17.129,0 0,-60.227 -47.516,0 0,179.566 66.856,0 c 38.672,0 71.824,-13.261 71.824,-58.011 0,-25.696 -11.606,-42.547 -29.004,-51.942 l 38.949,-69.613 -53.043,0"
         style="fill:#000000;fill-opacity:1;fill-rule:nonzero;stroke:none"
         id="path3414"
         inkscape:connector-curvature="0" /><path
         d="m 628.328,184.707 c 22.934,0 41.442,10.492 41.442,52.484 0,41.993 -18.508,50.832 -41.442,50.832 l -0.551,0 0,-103.316 0.551,0 z m -48.062,141.441 50.554,0 c 51.375,0 87.563,-25.421 87.563,-88.957 0,-63.535 -36.188,-90.609 -84.805,-90.609 l -53.312,0 0,179.566"
         style="fill:#000000;fill-opacity:1;fill-rule:nonzero;stroke:none"
         id="path3416"
         inkscape:connector-curvature="0" /><path
         d="m 796.73,183.051 c 18.79,0 26.524,7.183 26.524,20.441 0,13.262 -7.734,18.781 -26.524,18.781 l -13.808,0 0,-39.222 13.808,0 z m -3.312,72.379 c 15.461,0 22.102,7.73 22.102,18.781 0,11.047 -6.641,15.473 -22.102,15.473 l -10.496,0 0,-34.254 10.496,0 z m -58.012,70.718 59.114,0 c 37.57,0 67.406,-9.394 67.406,-44.757 0,-15.469 -9.399,-33.149 -30.395,-38.676 l 0,-1.098 c 25.422,-4.976 38.125,-18.238 38.125,-41.992 0,-37.02 -30.933,-53.043 -69.605,-53.043 l -64.645,0 0,179.566"
         style="fill:#000000;fill-opacity:1;fill-rule:nonzero;stroke:none"
         id="path3418"
         inkscape:connector-curvature="0" /><path
         d="m 936.797,244.375 16.016,0 c 18.796,0 28.742,8.285 28.742,23.762 0,15.461 -9.946,20.437 -28.742,20.437 l -16.016,0 0,-44.199 z m 48.066,-97.793 -30.937,60.227 -17.129,0 0,-60.227 -47.512,0 0,179.566 66.836,0 c 38.684,0 71.839,-13.261 71.839,-58.011 0,-25.696 -11.61,-42.547 -29.007,-51.942 l 38.957,-69.613 -53.047,0"
         style="fill:#000000;fill-opacity:1;fill-rule:nonzero;stroke:none"
         id="path3420"
         inkscape:connector-curvature="0" /><path
         d="m 1047.43,326.148 121.54,0 0,-39.781 -74.03,0 0,-28.179 62.98,0 0,-39.774 -62.98,0 0,-32.047 76.8,0 0,-39.785 -124.31,0 0,179.566"
         style="fill:#000000;fill-opacity:1;fill-rule:nonzero;stroke:none"
         id="path3422"
         inkscape:connector-curvature="0" /><path
         d="m 1183.08,326.148 48.62,0 2.21,-88.957 c 0,-15.461 0,-30.937 0,-46.406 l 1.1,0 c 2.21,15.469 6.08,31.219 8.84,46.406 l 9.94,43.649 27.63,0 9.12,-43.649 c 2.48,-14.636 6.34,-30.382 8.84,-46.406 l 1.1,0 c 0,16.024 0,31.488 0,46.406 l 2.21,88.957 45.3,0 -20.71,-179.566 -49.17,0 -8.02,49.176 c -1.94,11.601 -3.87,24.308 -4.13,35.082 l -0.84,0 c -0.83,-10.774 -2.21,-23.481 -4.14,-35.082 l -7.45,-49.176 -48.08,0 -22.37,179.566"
         style="fill:#000000;fill-opacity:1;fill-rule:nonzero;stroke:none"
         id="path3424"
         inkscape:connector-curvature="0" /><path
         d="m 1359.6,186.367 40.89,0 0,100 -40.89,0 0,39.781 129.29,0 0,-39.781 -40.89,0 0,-100 40.89,0 0,-39.785 -129.29,0 0,39.785"
         style="fill:#000000;fill-opacity:1;fill-rule:nonzero;stroke:none"
         id="path3426"
         inkscape:connector-curvature="0" /><path
         d="m 1516.8,326.148 48.05,0 30.11,-80.117 14.65,-40.332 1.1,0 c -2.2,19.34 -6.63,46.414 -6.63,68.512 l 0,51.937 45.3,0 0,-179.566 -48.05,0 -30.12,80.391 -14.64,40.054 -1.1,0 c 2.21,-20.441 6.62,-46.406 6.62,-68.511 l 0,-51.934 -45.29,0 0,179.566"
         style="fill:#000000;fill-opacity:1;fill-rule:nonzero;stroke:none"
         id="path3428"
         inkscape:connector-curvature="0" /><path
         d="m 1819.7,329.457 c 43.01,0 73.81,-19.551 94.82,-41.059 l -45.94,-51.804 c -13.2,12.703 -25.91,20.519 -48.88,20.519 -34.71,0 -63.07,-34.218 -63.07,-91.894 0,-59.633 22,-92.8752 67.46,-92.8752 7.81,0 16.62,1.9531 21.52,5.871 l 0,43.9922 -39.6,0 0,68.43 114.38,0 0,-151.5354 C 1898.4,19.5508 1859.78,0 1819.21,0 c -81.63,0 -149.09,53.7695 -149.09,162.289 0,107.535 66.96,167.168 149.58,167.168"
         style="fill:#000000;fill-opacity:1;fill-rule:nonzero;stroke:none"
         id="path3430"
         inkscape:connector-curvature="0" /><path
         d="m 328.531,57.3438 c 0,23.5351 -9.261,37.9687 -23.082,37.9687 -13.828,0 -23.09,-14.4336 -23.09,-37.9687 0,-23.5547 9.262,-38.7305 23.09,-38.7305 13.821,0 23.082,15.1758 23.082,38.7305 z m -61.816,0 c 0,32.0429 15.945,51.1722 38.734,51.1722 22.774,0 38.731,-19.2855 38.731,-51.1722 0,-32.0508 -15.957,-51.95317 -38.731,-51.95317 -22.789,0 -38.734,19.90237 -38.734,51.95317"
         style="fill:#000000;fill-opacity:1;fill-rule:nonzero;stroke:none"
         id="path3432"
         inkscape:connector-curvature="0" /><path
         d="m 392.008,57.5 c 16.097,0 23.847,6.0742 23.847,19.2773 0,13.2227 -8.05,17.7735 -23.847,17.7735 l -15.344,0 0,-37.0508 15.344,0 z m -30.528,49.199 32.043,0 c 21.868,0 37.368,-7.5974 37.368,-29.9217 0,-21.5742 -15.793,-31.5898 -37.368,-31.5898 l -16.859,0 0,-37.96875 -15.184,0 0,99.48025"
         style="fill:#000000;fill-opacity:1;fill-rule:nonzero;stroke:none"
         id="path3434"
         inkscape:connector-curvature="0" /><path
         d="m 451.227,106.699 62.425,0 0,-12.7537 -47.234,0 0,-28.4101 39.949,0 0,-12.7539 -39.949,0 0,-32.8008 48.758,0 0,-12.76175 -63.949,0 0,99.48025"
         style="fill:#000000;fill-opacity:1;fill-rule:nonzero;stroke:none"
         id="path3436"
         inkscape:connector-curvature="0" /><path
         d="m 533.84,106.699 15.34,0 29.468,-59.3865 9.567,-20.6523 0.461,0 c -0.61,10.0195 -2.129,22.0312 -2.129,32.6562 l 0,47.3826 14.426,0 0,-99.48025 -15.336,0 -29.469,59.38285 -9.566,20.664 -0.454,0 c 0.606,-10.332 2.122,-21.5742 2.122,-32.3633 l 0,-47.68355 -14.43,0 0,99.48025"
         style="fill:#000000;fill-opacity:1;fill-rule:nonzero;stroke:none"
         id="path3438"
         inkscape:connector-curvature="0" /><path
         d="m 714.863,30.4492 c 7.598,-7.1289 17.621,-11.8359 27.95,-11.8359 13.054,0 20.351,5.7617 20.351,14.5703 0,9.1211 -7.297,12.0039 -17.32,15.957 l -13.969,6.2188 c -10.176,3.957 -21.262,11.3984 -21.262,25.9804 0,15.4844 13.821,27.1762 33.563,27.1762 12.308,0 23.387,-4.856 31.137,-12.4535 l -7.903,-9.7148 c -6.527,5.6171 -13.812,8.9648 -23.234,8.9648 -11.242,0 -18.231,-5.0195 -18.231,-13.0664 0,-8.8086 8.512,-11.8477 17.325,-15.3438 l 13.511,-5.9257 c 12.457,-4.8438 21.875,-11.9922 21.875,-26.5821 0,-15.9375 -13.519,-29.00387 -36.156,-29.00387 -14.27,0 -27.027,5.46877 -36.445,14.73827 l 8.808,10.3203"
         style="fill:#000000;fill-opacity:1;fill-rule:nonzero;stroke:none"
         id="path3440"
         inkscape:connector-curvature="0" /><path
         d="m 852.449,57.3438 c 0,23.5351 -9.258,37.9687 -23.086,37.9687 -13.804,0 -23.086,-14.4336 -23.086,-37.9687 0,-23.5547 9.282,-38.7305 23.086,-38.7305 13.828,0 23.086,15.1758 23.086,38.7305 z m -61.804,0 c 0,32.0429 15.949,51.1722 38.718,51.1722 22.778,0 38.735,-19.2855 38.735,-51.1722 0,-32.0508 -15.957,-51.95317 -38.735,-51.95317 -22.769,0 -38.718,19.90237 -38.718,51.95317"
         style="fill:#000000;fill-opacity:1;fill-rule:nonzero;stroke:none"
         id="path3442"
         inkscape:connector-curvature="0" /><path
         d="m 882.512,106.699 15.347,0 0,-62.5779 c 0,-18.2227 7.739,-25.5078 18.989,-25.5078 11.382,0 19.273,7.2851 19.273,25.5078 l 0,62.5779 14.746,0 0,-61.6599 c 0,-27.9493 -13.379,-39.64847 -34.019,-39.64847 -20.649,0 -34.336,11.69917 -34.336,39.64847 l 0,61.6599"
         style="fill:#000000;fill-opacity:1;fill-rule:nonzero;stroke:none"
         id="path3444"
         inkscape:connector-curvature="0" /><path
         d="m 987.605,59.9219 15.045,0 c 14.58,0 22.48,5.9179 22.48,18.0664 0,12.1484 -7.9,16.5625 -22.48,16.5625 l -15.045,0 0,-34.6289 z m 38.885,-52.70315 -22.63,40.39845 -16.255,0 0,-40.39845 -15.171,0 0,99.48025 32.036,0 c 20.5,0 35.7,-7.2849 35.7,-28.7107 0,-15.332 -8.36,-24.5977 -20.97,-28.3985 l 24.45,-42.37105 -17.16,0"
         style="fill:#000000;fill-opacity:1;fill-rule:nonzero;stroke:none"
         id="path3446"
         inkscape:connector-curvature="0" /><path
         d="m 1100.59,108.516 c 12.14,0 21.72,-5.918 27.64,-12.2933 l -8.49,-9.5743 c -5.02,5.3164 -11.1,8.6641 -19.15,8.6641 -17.77,0 -29.61,-14.5898 -29.61,-38.125 0,-23.8477 11.84,-38.5742 29.91,-38.5742 8.51,0 15.05,3.789 21.11,10.4687 l 8.52,-9.2578 c -8.06,-9.2656 -17.93,-14.43357 -30.53,-14.43357 -25.21,0 -44.66,18.67187 -44.66,51.33987 0,32.3515 19.14,51.7855 45.26,51.7855"
         style="fill:#000000;fill-opacity:1;fill-rule:nonzero;stroke:none"
         id="path3448"
         inkscape:connector-curvature="0" /><path
         d="m 1149.8,106.699 62.43,0 0,-12.7537 -47.25,0 0,-28.4101 39.95,0 0,-12.7539 -39.95,0 0,-32.8008 48.76,0 0,-12.76175 -63.94,0 0,99.48025"
         style="fill:#000000;fill-opacity:1;fill-rule:nonzero;stroke:none"
         id="path3450"
         inkscape:connector-curvature="0" /><path
         d="m 1351.48,19.2188 c 15.8,0 24.59,5.7695 24.59,18.0664 0,11.4062 -8.49,16.5625 -24.59,16.5625 l -13.68,0 0,-34.6289 13.68,0 z m -2.44,45.7148 c 15.34,0 21.72,5.6133 21.72,15.7891 0,9.8828 -7.13,14.1211 -21.26,14.1211 l -11.7,0 0,-29.9102 11.24,0 z m -26.42,41.7654 28.25,0 c 20.35,0 34.77,-6.523 34.77,-24.4529 0,-9.5703 -5.61,-18.5352 -17.31,-21.5625 l 0,-0.6172 c 14.43,-2.4297 22.64,-10.1641 22.64,-23.6875 0,-19.7461 -15.64,-29.16015 -37.68,-29.16015 l -30.67,0 0,99.48025"
         style="fill:#000000;fill-opacity:1;fill-rule:nonzero;stroke:none"
         id="path3452"
         inkscape:connector-curvature="0" /><path
         d="m 1411.77,106.699 62.41,0 0,-12.7537 -47.25,0 0,-28.4101 39.97,0 0,-12.7539 -39.97,0 0,-32.8008 48.77,0 0,-12.76175 -63.93,0 0,99.48025"
         style="fill:#000000;fill-opacity:1;fill-rule:nonzero;stroke:none"
         id="path3454"
         inkscape:connector-curvature="0" /><path
         d="m 1499.08,106.699 62.42,0 0,-12.7537 -47.23,0 0,-28.4101 39.94,0 0,-12.7539 -39.94,0 0,-32.8008 48.75,0 0,-12.76175 -63.94,0 0,99.48025"
         style="fill:#000000;fill-opacity:1;fill-rule:nonzero;stroke:none"
         id="path3456"
         inkscape:connector-curvature="0" /><path
         d="m 1598.86,59.9219 15.03,0 c 14.58,0 22.47,5.9179 22.47,18.0664 0,12.1484 -7.89,16.5625 -22.47,16.5625 l -15.03,0 0,-34.6289 z m 38.87,-52.70315 -22.62,40.39845 -16.25,0 0,-40.39845 -15.2,0 0,99.48025 32.05,0 c 20.5,0 35.7,-7.2849 35.7,-28.7107 0,-15.332 -8.35,-24.5977 -20.97,-28.3985 l 24.46,-42.37105 -17.17,0"
         style="fill:#000000;fill-opacity:1;fill-rule:nonzero;stroke:none"
         id="path3458"
         inkscape:connector-curvature="0" /></g></g></svg>