<?xml version="1.0" encoding="UTF-8" standalone="no"?>
<!-- Created with Inkscape (http://www.inkscape.org/) -->

<svg
   xmlns:dc="http://purl.org/dc/elements/1.1/"
   xmlns:cc="http://creativecommons.org/ns#"
   xmlns:rdf="http://www.w3.org/1999/02/22-rdf-syntax-ns#"
   xmlns:svg="http://www.w3.org/2000/svg"
   xmlns="http://www.w3.org/2000/svg"
   xmlns:sodipodi="http://sodipodi.sourceforge.net/DTD/sodipodi-0.dtd"
   xmlns:inkscape="http://www.inkscape.org/namespaces/inkscape"
   width="210mm"
   height="210mm"
   viewBox="0 0 744.09449 744.09448"
   id="svg102725"
   version="1.1"
   inkscape:version="0.91 r13725"
   sodipodi:docname="Nerdbrewing_logo_BLACK.svg">
  <defs
     id="defs102727" />
  <sodipodi:namedview
     id="base"
     pagecolor="#ffffff"
     bordercolor="#666666"
     borderopacity="1.0"
     inkscape:pageopacity="0.0"
     inkscape:pageshadow="2"
     inkscape:zoom="0.98994949"
     inkscape:cx="573.87905"
     inkscape:cy="409.95538"
     inkscape:document-units="px"
     inkscape:current-layer="layer1"
     showgrid="false"
     inkscape:window-width="1920"
     inkscape:window-height="1137"
     inkscape:window-x="-8"
     inkscape:window-y="-8"
     inkscape:window-maximized="1" />
  <metadata
     id="metadata102730">
    <rdf:RDF>
      <cc:Work
         rdf:about="">
        <dc:format>image/svg+xml</dc:format>
        <dc:type
           rdf:resource="http://purl.org/dc/dcmitype/StillImage" />
        <dc:title></dc:title>
      </cc:Work>
    </rdf:RDF>
  </metadata>
  <g
     inkscape:label="Layer 1"
     inkscape:groupmode="layer"
     id="layer1"
     transform="translate(0,-308.26772)">
    <g
       id="g103285"
       transform="matrix(5.3246511,0,0,5.3246511,-487.67175,-3200.5134)">
      <path
         inkscape:connector-curvature="0"
         id="path16"
         style="fill:#000000;fill-opacity:1;fill-rule:nonzero;stroke:none"
         d="m 160.00027,780.71052 c -26.70201,0 -48.34822,-21.64621 -48.34822,-48.34862 0,-26.70171 21.64621,-48.34792 48.34822,-48.34792 26.70241,0 48.34885,21.64621 48.34885,48.34792 0,26.70241 -21.64644,48.34862 -48.34885,48.34862 z m 56.04213,-42.45571 c 0.20645,-1.98922 3.39772,-3.84895 3.39772,-5.89291 0,-2.04397 -3.19127,-3.90363 -3.39772,-5.8931 -0.21108,-2.02843 2.52585,-4.50594 2.11077,-6.4668 -0.4214,-1.99128 -3.92971,-3.14732 -4.54983,-5.05714 -0.62745,-1.93245 1.5305,-4.92781 0.71124,-6.76527 -0.82616,-1.85257 -4.4986,-2.2493 -5.50767,-3.99294 -1.01427,-1.75365 0.47157,-5.13403 -0.71534,-6.7648 -1.19079,-1.63603 -4.86505,-1.26198 -6.21681,-2.7623 -1.35311,-1.50167 -0.59886,-5.11709 -2.1007,-6.4702 -1.50032,-1.35171 -5.01759,-0.22615 -6.65357,-1.41699 -1.63105,-1.18692 -1.64178,-4.8804 -3.39479,-5.89497 -1.7441,-1.009 -4.95002,0.82206 -6.80259,-0.004 -1.83751,-0.81902 -2.61786,-4.42947 -4.55012,-5.05692 -1.91001,-0.62012 -4.66159,1.84068 -6.65287,1.41951 -1.96087,-0.41478 -3.47854,-3.78232 -5.50721,-3.99294 -1.98946,-0.20692 -4.16868,2.77262 -6.21264,2.77262 -2.04397,0 -4.22326,-2.97954 -6.21271,-2.77262 -2.02862,0.21062 -3.54611,3.57816 -5.50698,3.99294 -1.99128,0.42117 -4.7428,-2.03986 -6.6531,-1.41974 -1.93245,0.62768 -2.71237,4.23789 -4.54965,5.05715 -1.85257,0.82616 -5.05896,-1.00514 -6.80259,0.004 -1.75366,1.01428 -1.76397,4.708 -3.39497,5.89491 -1.63604,1.19084 -5.15331,0.065 -6.65357,1.41699 -1.50167,1.35287 -0.74764,4.96807 -2.10075,6.46997 -1.3517,1.50055 -5.02621,1.12603 -6.21681,2.76207 -1.18692,1.631 0.29875,5.01161 -0.71582,6.76503 -1.00901,1.74363 -4.68122,2.1406 -5.50761,3.99317 -0.81908,1.83752 1.33869,4.83282 0.71124,6.76526 -0.62012,1.91007 -4.12848,3.0661 -4.54989,5.05738 -0.41454,1.96087 2.32186,4.43838 2.11107,6.46728 -0.20675,1.98923 -3.39825,3.84866 -3.39825,5.89263 0,2.04396 3.1915,3.90368 3.39825,5.89291 0.21079,2.02886 -2.52561,4.50589 -2.11107,6.46699 0.42123,1.99157 3.92953,3.14731 4.54966,5.05738 0.62768,1.9325 -1.53009,4.92804 -0.71101,6.76526 0.82616,1.85263 4.4986,2.24931 5.5072,3.99317 1.01475,1.75372 -0.47116,5.13386 0.71599,6.76504 1.19061,1.63603 4.86488,1.26157 6.21658,2.76206 1.35311,1.50167 0.59909,5.11716 2.10098,6.47021 1.50009,1.35176 5.0173,0.22597 6.65334,1.41675 1.631,1.18715 1.64155,4.8804 3.39503,5.89521 1.74381,1.00882 4.94972,-0.82248 6.80259,0.004 1.83722,0.81908 2.61761,4.4297 4.55006,5.05715 1.9103,0.62012 4.66182,-1.84139 6.6531,-1.41992 1.96087,0.41501 3.47859,3.78255 5.50721,3.99311 1.98946,0.20651 4.16851,-2.77279 6.21248,-2.77279 2.04396,0 4.22318,2.9793 6.21264,2.77279 2.02867,-0.21056 3.54587,-3.5781 5.50674,-3.99311 1.99152,-0.42147 4.7431,2.04004 6.65334,1.41992 1.93226,-0.62745 2.71261,-4.23807 4.54988,-5.05715 1.85257,-0.82587 5.05849,1.00519 6.80236,-0.003 1.75324,-1.0148 1.76403,-4.70829 3.3948,-5.89521 1.63626,-1.19078 5.15348,-0.065 6.65356,-1.41675 1.5019,-1.35311 0.74764,-4.96831 2.10069,-6.47021 1.35177,-1.50048 5.02627,-1.12602 6.21705,-2.76206 1.18692,-1.63124 -0.29893,-5.01132 0.71558,-6.76457 1.00907,-1.7441 4.68128,-2.14101 5.50744,-3.99363 0.81949,-1.83746 -1.33846,-4.833 -0.71101,-6.76551 0.62012,-1.91006 4.12843,-3.06556 4.54983,-5.0569 0.41508,-1.96111 -2.32185,-4.4386 -2.11077,-6.46745" />
      <path
         inkscape:connector-curvature="0"
         id="path18"
         style="fill:#000000;fill-opacity:1;fill-rule:nonzero;stroke:none"
         d="m 177.62282,723.61014 c 0,-3.04664 -1.82714,-4.26514 -6.09269,-4.26514 l -2.89439,0 0,9.44429 2.89439,0 c 4.26555,0 6.09269,-2.1328 6.09269,-5.17915" />
      <path
         inkscape:connector-curvature="0"
         id="path20"
         style="fill:#000000;fill-opacity:1;fill-rule:nonzero;stroke:none"
         d="m 172.44414,735.92903 -3.8084,0 0,10.81547 3.8084,0 c 5.17868,0 7.31196,-1.98057 7.31196,-5.63607 0,-3.65616 -2.13328,-5.1794 -7.31196,-5.1794" />
      <path
         inkscape:connector-curvature="0"
         id="path22"
         style="fill:#000000;fill-opacity:1;fill-rule:nonzero;stroke:none"
         d="m 173.35797,756.79789 -18.35238,0 -8.30197,-22.16354 -4.03684,-11.04412 -0.30473,0 c 0.60963,5.63648 1.82814,12.79526 1.82814,18.88824 l 0,14.31942 -12.49088,0 0,-49.5067 13.2527,0 8.30197,22.08777 2.28154,6.28549 0,-28.37326 16.29905,0 c 10.35877,0 18.58451,2.58943 18.58451,12.33886 0,4.26509 -2.59038,9.13951 -8.37846,10.66274 l 0,0.30467 c 7.00747,1.37116 10.51056,5.02643 10.51056,11.57681 0,10.20606 -8.52999,14.62362 -19.19321,14.62362 z m -13.3577,-70.38582 c -25.3775,0 -45.95036,20.57234 -45.95036,45.94983 0,25.37796 20.57286,45.95035 45.95036,45.95035 25.37766,0 45.95052,-20.57239 45.95052,-45.95035 0,-25.37749 -20.57286,-45.94983 -45.95052,-45.94983" />
    </g>
  </g>
</svg>
