<?xml version="1.0" standalone="no"?><!-- Generator: Gravit.io --><svg xmlns="http://www.w3.org/2000/svg" xmlns:xlink="http://www.w3.org/1999/xlink" style="isolation:isolate" viewBox="697.611 494.068 234.778 12.891" width="234.778" height="12.891"><defs><clipPath id="_clipPath_1LepQduDl4lcJBWzBdFrIZTBesodbGko"><rect x="697.611" y="494.068" width="234.778" height="12.891"/></clipPath></defs><g clip-path="url(#_clipPath_1LepQduDl4lcJBWzBdFrIZTBesodbGko)"><path d=" M 800.011 494.085 L 836.033 494.085 L 836.033 506.943 L 800.011 506.943 L 800.011 494.085 Z " fill="rgb(0,0,0)"/><path d=" M 840.676 506.947 L 824.994 506.943 L 817.022 500.51 L 824.732 494.081 L 840.415 494.085 L 848.387 500.518 L 840.676 506.947 Z " fill="rgb(0,0,0)"/><path d=" M 806.242 506.959 L 790.559 506.955 L 782.587 500.509 L 790.298 494.068 L 805.98 494.073 L 813.952 500.519 L 806.242 506.959 Z " fill="rgb(0,0,0)"/><path d=" M 697.611 499.313 L 932.389 499.313 L 932.389 501.644 L 697.611 501.644 L 697.611 499.313 Z " fill="rgb(0,0,0)"/><path d=" M 808.693 504.398 L 808.693 505.341 L 802.85 505.341 L 802.85 504.466 L 805.191 502.097 L 805.191 502.097 Q 806.261 501.008 806.602 500.543 L 806.602 500.543 L 806.602 500.543 Q 806.942 500.078 807.112 499.637 L 807.112 499.637 L 807.112 499.637 Q 807.283 499.196 807.283 498.688 L 807.283 498.688 L 807.283 498.688 Q 807.283 497.972 806.851 497.553 L 806.851 497.553 L 806.851 497.553 Q 806.419 497.134 805.653 497.134 L 805.653 497.134 L 805.653 497.134 Q 805.1 497.134 804.604 497.317 L 804.604 497.317 L 804.604 497.317 Q 804.109 497.501 803.501 497.984 L 803.501 497.984 L 802.966 497.293 L 802.966 497.293 Q 804.194 496.265 805.641 496.265 L 805.641 496.265 L 805.641 496.265 Q 806.893 496.265 807.605 496.91 L 807.605 496.91 L 807.605 496.91 Q 808.316 497.556 808.316 498.645 L 808.316 498.645 L 808.316 498.645 Q 808.316 499.496 807.842 500.328 L 807.842 500.328 L 807.842 500.328 Q 807.368 501.161 806.067 502.434 L 806.067 502.434 L 804.121 504.349 L 804.121 504.398 L 808.693 504.398 L 808.693 504.398 Z  M 815.861 500.855 L 815.861 500.855 L 815.861 500.855 Q 815.861 503.174 815.135 504.319 L 815.135 504.319 L 815.135 504.319 Q 814.408 505.463 812.913 505.463 L 812.913 505.463 L 812.913 505.463 Q 811.478 505.463 810.73 504.291 L 810.73 504.291 L 810.73 504.291 Q 809.982 503.119 809.982 500.855 L 809.982 500.855 L 809.982 500.855 Q 809.982 498.517 810.706 497.385 L 810.706 497.385 L 810.706 497.385 Q 811.429 496.252 812.913 496.252 L 812.913 496.252 L 812.913 496.252 Q 814.36 496.252 815.111 497.434 L 815.111 497.434 L 815.111 497.434 Q 815.861 498.615 815.861 500.855 Z  M 811.004 500.855 L 811.004 500.855 L 811.004 500.855 Q 811.004 502.807 811.46 503.698 L 811.46 503.698 L 811.46 503.698 Q 811.916 504.588 812.913 504.588 L 812.913 504.588 L 812.913 504.588 Q 813.922 504.588 814.375 503.685 L 814.375 503.685 L 814.375 503.685 Q 814.828 502.783 814.828 500.855 L 814.828 500.855 L 814.828 500.855 Q 814.828 498.927 814.375 498.03 L 814.375 498.03 L 814.375 498.03 Q 813.922 497.134 812.913 497.134 L 812.913 497.134 L 812.913 497.134 Q 811.916 497.134 811.46 498.018 L 811.46 498.018 L 811.46 498.018 Q 811.004 498.902 811.004 500.855 Z  M 820.829 496.393 L 820.829 505.341 L 819.844 505.341 L 819.844 498.964 L 819.844 498.964 Q 819.844 498.168 819.893 497.458 L 819.893 497.458 L 819.893 497.458 Q 819.765 497.587 819.607 497.727 L 819.607 497.727 L 819.607 497.727 Q 819.449 497.868 818.16 498.921 L 818.16 498.921 L 817.625 498.223 L 819.978 496.393 L 820.829 496.393 L 820.829 496.393 Z  M 827.152 496.265 L 827.152 496.265 L 827.152 496.265 Q 828.368 496.265 829.079 496.834 L 829.079 496.834 L 829.079 496.834 Q 829.791 497.403 829.791 498.407 L 829.791 498.407 L 829.791 498.407 Q 829.791 499.068 829.383 499.612 L 829.383 499.612 L 829.383 499.612 Q 828.976 500.157 828.082 500.604 L 828.082 500.604 L 828.082 500.604 Q 829.165 501.124 829.621 501.696 L 829.621 501.696 L 829.621 501.696 Q 830.077 502.269 830.077 503.021 L 830.077 503.021 L 830.077 503.021 Q 830.077 504.135 829.304 504.799 L 829.304 504.799 L 829.304 504.799 Q 828.532 505.463 827.189 505.463 L 827.189 505.463 L 827.189 505.463 Q 825.766 505.463 825 504.836 L 825 504.836 L 825 504.836 Q 824.234 504.209 824.234 503.058 L 824.234 503.058 L 824.234 503.058 Q 824.234 501.522 826.094 500.665 L 826.094 500.665 L 826.094 500.665 Q 825.255 500.188 824.89 499.634 L 824.89 499.634 L 824.89 499.634 Q 824.526 499.08 824.526 498.394 L 824.526 498.394 L 824.526 498.394 Q 824.526 497.421 825.24 496.843 L 825.24 496.843 L 825.24 496.843 Q 825.954 496.265 827.152 496.265 Z  M 825.231 503.083 L 825.231 503.083 L 825.231 503.083 Q 825.231 503.817 825.738 504.227 L 825.738 504.227 L 825.738 504.227 Q 826.246 504.637 827.164 504.637 L 827.164 504.637 L 827.164 504.637 Q 828.07 504.637 828.575 504.209 L 828.575 504.209 L 828.575 504.209 Q 829.079 503.78 829.079 503.034 L 829.079 503.034 L 829.079 503.034 Q 829.079 502.44 828.605 501.978 L 828.605 501.978 L 828.605 501.978 Q 828.131 501.516 826.951 501.081 L 826.951 501.081 L 826.951 501.081 Q 826.046 501.473 825.638 501.947 L 825.638 501.947 L 825.638 501.947 Q 825.231 502.422 825.231 503.083 Z  M 827.14 497.091 L 827.14 497.091 L 827.14 497.091 Q 826.38 497.091 825.948 497.458 L 825.948 497.458 L 825.948 497.458 Q 825.517 497.825 825.517 498.437 L 825.517 498.437 L 825.517 498.437 Q 825.517 499 825.875 499.404 L 825.875 499.404 L 825.875 499.404 Q 826.234 499.808 827.201 500.212 L 827.201 500.212 L 827.201 500.212 Q 828.07 499.845 828.432 499.423 L 828.432 499.423 L 828.432 499.423 Q 828.794 499 828.794 498.437 L 828.794 498.437 L 828.794 498.437 Q 828.794 497.819 828.353 497.455 L 828.353 497.455 L 828.353 497.455 Q 827.912 497.091 827.14 497.091 Z " fill-rule="evenodd" fill="rgb(255,255,255)"/></g></svg>