<?xml version="1.0" standalone="no"?><!-- Generator: Gravit.io --><svg xmlns="http://www.w3.org/2000/svg" xmlns:xlink="http://www.w3.org/1999/xlink" style="isolation:isolate" viewBox="0 0 506.409 503.745" width="506.409" height="503.745"><defs><clipPath id="_clipPath_VNRqISMvY6UKJOlsxld8odb33vPasEOa"><rect width="506.409" height="503.745"/></clipPath></defs><g clip-path="url(#_clipPath_VNRqISMvY6UKJOlsxld8odb33vPasEOa)"><g><path d=" M 253.206 457.823 C 139.463 457.823 47.256 365.616 47.256 251.871 C 47.256 138.129 139.463 45.923 253.206 45.923 C 366.951 45.923 459.158 138.129 459.158 251.871 C 459.158 365.616 366.951 457.823 253.206 457.823 Z  M 491.93 276.973 C 492.809 268.5 506.403 260.578 506.403 251.871 C 506.403 243.164 492.809 235.243 491.93 226.768 C 491.031 218.128 502.689 207.574 500.921 199.221 C 499.126 190.739 484.182 185.815 481.54 177.679 C 478.867 169.448 488.059 156.688 484.57 148.861 C 481.05 140.97 465.407 139.28 461.109 131.852 C 456.788 124.382 463.117 109.983 458.061 103.036 C 452.989 96.067 437.338 97.661 431.58 91.27 C 425.816 84.873 429.029 69.472 422.631 63.708 C 416.24 57.951 401.258 62.745 394.289 57.672 C 387.341 52.616 387.295 36.883 379.828 32.562 C 372.399 28.263 358.742 36.063 350.851 32.544 C 343.023 29.056 339.699 13.676 331.469 11.003 C 323.332 8.362 311.611 18.844 303.129 17.05 C 294.776 15.283 288.312 0.939 279.67 0.041 C 271.195 -0.84 261.913 11.852 253.206 11.852 C 244.499 11.852 235.216 -0.84 226.741 0.041 C 218.1 0.939 211.636 15.283 203.283 17.05 C 194.801 18.844 183.08 8.361 174.943 11.002 C 166.711 13.676 163.389 29.055 155.563 32.544 C 147.671 36.064 134.013 28.263 126.586 32.562 C 119.115 36.882 119.072 52.616 112.124 57.672 C 105.155 62.745 90.172 57.949 83.782 63.708 C 77.385 69.471 80.597 84.871 74.833 91.268 C 69.075 97.66 53.423 96.065 48.351 103.034 C 43.295 109.982 49.624 124.382 45.302 131.851 C 41.004 139.279 25.361 140.97 21.841 148.861 C 18.352 156.688 27.543 169.447 24.871 177.679 C 22.229 185.815 7.285 190.74 5.489 199.222 C 3.724 207.575 15.38 218.128 14.482 226.771 C 13.601 235.245 0.006 243.165 0.006 251.872 C 0.006 260.579 13.601 268.501 14.482 276.974 C 15.38 285.616 3.724 296.168 5.489 304.522 C 7.284 313.005 22.228 317.928 24.87 326.065 C 27.543 334.297 18.352 347.057 21.841 354.883 C 25.36 362.774 41.004 364.464 45.3 371.893 C 49.623 379.363 43.293 393.761 48.35 400.71 C 53.422 407.679 69.073 406.084 74.831 412.475 C 80.595 418.872 77.383 434.273 83.781 440.037 C 90.171 445.795 105.153 440.999 112.122 446.072 C 119.07 451.129 119.114 466.861 126.584 471.184 C 134.012 475.481 147.668 467.68 155.561 471.201 C 163.387 474.69 166.711 490.07 174.943 492.743 C 183.08 495.384 194.801 484.899 203.283 486.694 C 211.636 488.462 218.101 502.807 226.742 503.704 C 235.217 504.583 244.499 491.892 253.206 491.892 C 261.913 491.892 271.195 504.583 279.67 503.704 C 288.312 502.807 294.774 488.462 303.127 486.694 C 311.61 484.899 323.331 495.384 331.469 492.743 C 339.699 490.07 343.023 474.69 350.85 471.201 C 358.741 467.683 372.398 475.482 379.826 471.188 C 387.294 466.865 387.34 451.132 394.287 446.076 C 401.257 441.003 416.239 445.799 422.629 440.041 C 429.027 434.277 425.814 418.877 431.577 412.48 C 437.336 406.088 452.988 407.683 458.06 400.714 C 463.116 393.765 456.787 379.367 461.109 371.899 C 465.407 364.469 481.049 362.779 484.569 354.887 C 488.059 347.06 478.867 334.3 481.54 326.068 C 484.182 317.932 499.126 313.009 500.921 304.527 C 502.689 296.173 491.031 285.62 491.93 276.977" fill="rgb(37,36,34)"/><path d=" M 328.273 214.591 C 328.273 201.613 320.49 196.423 302.32 196.423 L 289.991 196.423 L 289.991 236.653 L 302.32 236.653 C 320.49 236.653 328.273 227.568 328.273 214.591 Z " fill="rgb(37,36,34)"/><path d=" M 306.213 267.066 L 289.991 267.066 L 289.991 313.137 L 306.213 313.137 C 328.273 313.137 337.36 304.7 337.36 289.129 C 337.36 273.555 328.273 267.066 306.213 267.066 Z " fill="rgb(37,36,34)"/><path d=" M 310.106 355.962 L 231.93 355.962 L 196.566 261.551 L 179.37 214.506 L 178.072 214.506 C 180.669 238.516 185.859 269.011 185.859 294.965 L 185.859 355.962 L 132.652 355.962 L 132.652 145.077 L 189.104 145.077 L 224.469 239.165 L 234.187 265.939 L 234.187 145.077 L 303.617 145.077 C 347.742 145.077 382.782 156.107 382.782 197.637 C 382.782 215.805 371.747 236.569 347.092 243.057 L 347.092 244.355 C 376.941 250.196 391.864 265.766 391.864 293.669 C 391.864 337.144 355.528 355.962 310.106 355.962 L 310.106 355.962 Z  M 253.206 56.138 C 145.105 56.138 57.47 143.77 57.47 251.871 C 57.47 359.974 145.105 447.607 253.206 447.607 C 361.308 447.607 448.942 359.974 448.942 251.871 C 448.942 143.77 361.308 56.138 253.206 56.138 Z " fill="rgb(37,36,34)"/></g></g></svg>